<svg width="16" height="16" viewBox="0 0 16 16" fill="none" xmlns="http://www.w3.org/2000/svg">
  <rect width="16" height="16" rx="2" fill="#F24651"/>
  <path d="M5.25 4.29785H8.49414C9.28548 4.29785 9.94076 4.54671 10.46 5.04443C10.9827 5.53857 11.2441 6.15267 11.2441 6.88672C11.2441 7.61719 10.9845 8.23128 10.4653 8.729C9.94613 9.22314 9.28906 9.47021 8.49414 9.47021H6.9043V12H5.25V4.29785ZM8.44043 5.78564H6.9043V7.98242H8.44043C8.76986 7.98242 9.04378 7.87679 9.26221 7.66553C9.48421 7.45426 9.59521 7.19466 9.59521 6.88672C9.59521 6.57878 9.48421 6.31917 9.26221 6.10791C9.04378 5.89307 8.76986 5.78564 8.44043 5.78564Z" fill="white"/>
</svg>
