<svg width="10" height="14" viewBox="0 0 10 14" fill="none" xmlns="http://www.w3.org/2000/svg">
  <path d="M3.39519 9.00705C3.39519 8.50833 3.51299 8.06739 3.7486 7.68423C3.9842 7.29498 4.26888 6.9848 4.60265 6.75368C4.93642 6.51649 5.27018 6.28841 5.60395 6.06946C5.93772 5.85051 6.2224 5.59811 6.458 5.31226C6.69361 5.02641 6.81141 4.70102 6.81141 4.3361C6.81141 3.95294 6.64452 3.62451 6.31075 3.35082C5.97699 3.07714 5.54178 2.94029 5.00513 2.94029C4.44231 2.94029 3.95802 3.06497 3.55226 3.31433C3.15305 3.56369 2.89127 3.81305 2.76692 4.06241L2.59022 4.42733L0.0771484 3.40556C0.103326 3.32041 0.145865 3.20486 0.204766 3.05889C0.263666 2.91292 0.424005 2.66052 0.685784 2.30168C0.947563 1.94285 1.24861 1.62354 1.58892 1.34377C1.93578 1.05792 2.42007 0.802479 3.04179 0.577446C3.66352 0.346331 4.35069 0.230774 5.1033 0.230774C6.52345 0.230774 7.68182 0.598733 8.57841 1.33465C9.47501 2.06449 9.9233 2.94029 9.9233 3.96206C9.9233 4.59459 9.79896 5.16021 9.55027 5.65893C9.30812 6.15157 9.00708 6.54994 8.64713 6.85404C8.29373 7.15814 7.94033 7.44399 7.58693 7.7116C7.23352 7.9792 6.93248 8.29546 6.68379 8.66038C6.4351 9.01922 6.31075 9.41455 6.31075 9.84637H3.59153C3.46064 9.53619 3.39519 9.25642 3.39519 9.00705ZM3.66024 13.3496C3.34611 13.0698 3.18904 12.7444 3.18904 12.3734C3.18904 11.9963 3.34611 11.6679 3.66024 11.3881C3.98092 11.1084 4.3605 10.9685 4.79898 10.9685C5.24401 10.9685 5.62359 11.1084 5.93772 11.3881C6.25185 11.6679 6.40892 11.9963 6.40892 12.3734C6.40892 12.7444 6.25185 13.0698 5.93772 13.3496C5.62359 13.6293 5.24401 13.7692 4.79898 13.7692C4.3605 13.7692 3.98092 13.6293 3.66024 13.3496Z" fill="#7D8790"/>
</svg>
